# xmcd
#
# Track frame offsets: 
#        150
#        11065
#        25520
#        42327
#        56552
#        68272
#        87820
#        97317
#        112392
#        127452
#        140230
#        146747
#        161592
#        174180
#        184932
#        200577
#        221637
#
# Disc length: 3118 seconds
#
# Revision: 0
# Processed by: cddbd v1.5.2PL0 Copyright (c) Steve Scherf et al.
# Submitted via: ExactAudioCopy v1.3
#
DISCID=050c2c11
DTITLE=Various Artist - EWOB 1998
DYEAR=1900
DGENRE=Bluegrass
TTITLE0=Holiday Bluegrass Jam - Theme Time
TTITLE1=Springfield - When You Go Walking
TTITLE2=Fox Tower Bluegrass Band - County Clare
TTITLE3=Sunny Side - Rank Stanger
TTITLE4=Dick Kimmel and Co - I'll Never Forget You
TTITLE5=Acoustic Boulevard - Boulevard de l'ouest
TTITLE6=Fifty Fingers - Love Grown Cold
TTITLE7=Spruce Pine - High On Bluegrass
TTITLE8=Amy Gallatin and Stillwaters - Monroe-Esque
TTITLE9=Lejzici - Kluzka Cesta
TTITLE10=Uncle Sam - Farewell Blues
TTITLE11=New River Train - My Window Faces The South
TTITLE12=Apple Jack - Milenki ti moi
TTITLE13=Gordons - Ginseng Sulivan
TTITLE14=Lilly Of The West - Orphan Girl
TTITLE15=Massimo Gatti and Aldo Navazio - Volo Notturno
TTITLE16=Rawhide - The Typewriter
EXTD=
EXTT0=
EXTT1=
EXTT2=
EXTT3=
EXTT4=
EXTT5=
EXTT6=
EXTT7=
EXTT8=
EXTT9=
EXTT10=
EXTT11=
EXTT12=
EXTT13=
EXTT14=
EXTT15=
EXTT16=
PLAYORDER=
